<svg width="15" height="27" viewBox="0 0 15 27" fill="none" xmlns="http://www.w3.org/2000/svg">
<path d="M11.9311 26.625C11.651 26.6259 11.3742 26.5641 11.1212 26.4441C10.8681 26.324 10.6451 26.1488 10.4686 25.9312L1.41238 14.6812C1.1366 14.3457 0.98584 13.9249 0.98584 13.4906C0.98584 13.0563 1.1366 12.6355 1.41238 12.3L10.7874 1.05C11.1056 0.667094 11.563 0.426298 12.0588 0.380586C12.5546 0.334874 13.0482 0.48799 13.4311 0.80625C13.814 1.12451 14.0548 1.58184 14.1005 2.07764C14.1463 2.57344 13.9931 3.06709 13.6749 3.45L5.29363 13.5L13.3936 23.55C13.6229 23.8252 13.7686 24.1604 13.8133 24.5158C13.8581 24.8712 13.8001 25.232 13.6463 25.5555C13.4924 25.8789 13.2491 26.1516 12.9452 26.3411C12.6412 26.5307 12.2893 26.6292 11.9311 26.625Z" fill="white"/>
</svg>
