<svg width="15" height="27" viewBox="0 0 15 27" fill="none" xmlns="http://www.w3.org/2000/svg">
<path d="M3.06875 0.375001C3.34887 0.374047 3.62564 0.43587 3.87872 0.555924C4.13181 0.675979 4.35478 0.851213 4.53125 1.06875L13.5875 12.3187C13.8633 12.6542 14.014 13.0751 14.014 13.5094C14.014 13.9437 13.8633 14.3645 13.5875 14.7L4.2125 25.95C3.89424 26.3329 3.43691 26.5737 2.94111 26.6194C2.44531 26.6651 1.95166 26.512 1.56875 26.1937C1.18584 25.8755 0.945049 25.4182 0.899338 24.9224C0.853625 24.4266 1.00674 23.9329 1.325 23.55L9.70625 13.5L1.60625 3.45C1.37697 3.17478 1.23133 2.83964 1.18655 2.48424C1.14178 2.12883 1.19975 1.76804 1.3536 1.44455C1.50746 1.12106 1.75076 0.848412 2.05472 0.658868C2.35867 0.469323 2.71056 0.370816 3.06875 0.375001Z" fill="white"/>
</svg>
