<svg width="55" height="55" viewBox="0 0 55 55" fill="none" xmlns="http://www.w3.org/2000/svg">
<path d="M31.694 43.5415C31.3516 43.5427 31.0133 43.4671 30.704 43.3204C30.3947 43.1737 30.1222 42.9595 29.9065 42.6936L18.8377 28.9436C18.5007 28.5336 18.3164 28.0192 18.3164 27.4884C18.3164 26.9576 18.5007 26.4432 18.8377 26.0332L30.2961 12.2832C30.685 11.8152 31.244 11.5209 31.85 11.465C32.456 11.4091 33.0593 11.5963 33.5273 11.9853C33.9953 12.3743 34.2896 12.9332 34.3455 13.5392C34.4014 14.1452 34.2142 14.7485 33.8252 15.2165L23.5815 27.4999L33.4815 39.7832C33.7617 40.1196 33.9397 40.5292 33.9944 40.9636C34.0492 41.3979 33.9783 41.8389 33.7903 42.2343C33.6022 42.6297 33.3049 42.9629 32.9334 43.1946C32.5619 43.4262 32.1318 43.5466 31.694 43.5415Z" fill="#01815E"/>
</svg>
