<svg width="34" height="34" viewBox="0 0 34 34" fill="none" xmlns="http://www.w3.org/2000/svg">
<path d="M8.33317 18.6667H28.0998L22.0498 25.9333C21.9098 26.1019 21.8042 26.2963 21.7393 26.5056C21.6744 26.7149 21.6513 26.935 21.6715 27.1532C21.7121 27.5939 21.9261 28.0004 22.2665 28.2833C22.6069 28.5662 23.0457 28.7023 23.4864 28.6617C23.9271 28.6211 24.3336 28.407 24.6165 28.0667L32.9498 18.0667C33.0059 17.9871 33.056 17.9036 33.0998 17.8167C33.0998 17.7333 33.1832 17.6833 33.2165 17.6C33.292 17.4089 33.3316 17.2055 33.3332 17C33.3316 16.7945 33.292 16.5911 33.2165 16.4C33.2165 16.3167 33.1332 16.2667 33.0998 16.1833C33.056 16.0964 33.0059 16.0129 32.9498 15.9333L24.6165 5.93333C24.4598 5.74519 24.2636 5.59389 24.0418 5.49019C23.82 5.38649 23.578 5.33293 23.3332 5.33333C22.9437 5.33257 22.5664 5.4682 22.2665 5.71666C22.0977 5.85658 21.9582 6.02841 21.856 6.22233C21.7537 6.41624 21.6907 6.62842 21.6706 6.84671C21.6505 7.06501 21.6736 7.28513 21.7387 7.49447C21.8038 7.70381 21.9095 7.89825 22.0498 8.06666L28.0998 15.3333H8.33317C7.89114 15.3333 7.46722 15.5089 7.15466 15.8215C6.8421 16.134 6.6665 16.558 6.6665 17C6.6665 17.442 6.8421 17.8659 7.15466 18.1785C7.46722 18.4911 7.89114 18.6667 8.33317 18.6667Z" fill="#1C1717"/>
</svg>
