<svg width="45" height="45" viewBox="0 0 45 45" fill="none" xmlns="http://www.w3.org/2000/svg">
<path d="M19.0684 9.3751C19.3485 9.37414 19.6253 9.43597 19.8784 9.55602C20.1314 9.67607 20.3544 9.85131 20.5309 10.0688L29.5871 21.3188C29.8629 21.6543 30.0137 22.0752 30.0137 22.5095C30.0137 22.9438 29.8629 23.3646 29.5871 23.7001L20.2121 34.9501C19.8939 35.333 19.4365 35.5738 18.9407 35.6195C18.4449 35.6652 17.9513 35.5121 17.5684 35.1938C17.1855 34.8756 16.9447 34.4182 16.899 33.9224C16.8533 33.4267 17.0064 32.933 17.3246 32.5501L25.7059 22.5001L17.6059 12.4501C17.3766 12.1749 17.231 11.8397 17.1862 11.4843C17.1414 11.1289 17.1994 10.7681 17.3532 10.4446C17.5071 10.1212 17.7504 9.84851 18.0543 9.65896C18.3583 9.46942 18.7102 9.37091 19.0684 9.3751Z" fill="#01815E"/>
</svg>
