<svg width="40" height="40" viewBox="0 0 40 40" fill="none" xmlns="http://www.w3.org/2000/svg">
<path d="M31.729 6.66685H8.57488C7.25898 6.66685 5.99698 7.19364 5.0665 8.13132C4.13602 9.069 3.61328 10.3408 3.61328 11.6669V28.3335C3.61328 29.6596 4.13602 30.9314 5.0665 31.8691C5.99698 32.8067 7.25898 33.3335 8.57488 33.3335H31.729C33.0449 33.3335 34.3069 32.8067 35.2374 31.8691C36.1679 30.9314 36.6906 29.6596 36.6906 28.3335V11.6669C36.6906 10.3408 36.1679 9.069 35.2374 8.13132C34.3069 7.19364 33.0449 6.66685 31.729 6.66685ZM30.6209 10.0002L20.1519 17.9169L9.68297 10.0002H30.6209ZM31.729 30.0002H8.57488C8.13625 30.0002 7.71558 29.8246 7.40542 29.512C7.09526 29.1995 6.92101 28.7755 6.92101 28.3335V12.0835L19.1596 21.3335C19.4459 21.5499 19.7941 21.6669 20.1519 21.6669C20.5098 21.6669 20.858 21.5499 21.1443 21.3335L33.3829 12.0835V28.3335C33.3829 28.7755 33.2086 29.1995 32.8985 29.512C32.5883 29.8246 32.1676 30.0002 31.729 30.0002Z" fill="#1C1717"/>
</svg>
