<svg width="25" height="25" viewBox="0 0 25 25" fill="none" xmlns="http://www.w3.org/2000/svg">
<path d="M19.7913 4.16667H5.20801C4.37921 4.16667 3.58435 4.49591 2.9983 5.08196C2.41225 5.66801 2.08301 6.46287 2.08301 7.29167V17.7083C2.08301 18.5371 2.41225 19.332 2.9983 19.918C3.58435 20.5041 4.37921 20.8333 5.20801 20.8333H19.7913C20.6201 20.8333 21.415 20.5041 22.0011 19.918C22.5871 19.332 22.9163 18.5371 22.9163 17.7083V7.29167C22.9163 6.46287 22.5871 5.66801 22.0011 5.08196C21.415 4.49591 20.6201 4.16667 19.7913 4.16667ZM19.0934 6.25001L12.4997 11.1979L5.90592 6.25001H19.0934ZM19.7913 18.75H5.20801C4.93174 18.75 4.66679 18.6403 4.47144 18.4449C4.27609 18.2496 4.16634 17.9846 4.16634 17.7083V7.55209L11.8747 13.3333C12.055 13.4686 12.2743 13.5417 12.4997 13.5417C12.7251 13.5417 12.9444 13.4686 13.1247 13.3333L20.833 7.55209V17.7083C20.833 17.9846 20.7233 18.2496 20.5279 18.4449C20.3326 18.6403 20.0676 18.75 19.7913 18.75Z" fill="#01815E"/>
</svg>
