<svg width="23" height="20" viewBox="0 0 23 20" fill="none" xmlns="http://www.w3.org/2000/svg">
<g clip-path="url(#clip0_83_534)">
<path d="M20.4017 0H3.42882C2.7399 0.000529617 2.07937 0.247656 1.59223 0.687127C1.10509 1.1266 0.831153 1.7225 0.830566 2.344L0.830566 17.656C0.831153 18.2775 1.10509 18.8734 1.59223 19.3129C2.07937 19.7523 2.7399 19.9995 3.42882 20H20.4017C21.0907 19.9995 21.7512 19.7523 22.2383 19.3129C22.7255 18.8734 22.9994 18.2775 23 17.656V2.344C22.9994 1.7225 22.7255 1.1266 22.2383 0.687127C21.7512 0.247656 21.0907 0.000529617 20.4017 0V0ZM21.2675 17.656C21.2672 17.8631 21.1759 18.0616 21.0136 18.208C20.8513 18.3544 20.6313 18.4367 20.4017 18.437H15.4624V12.07H18.1382L18.5816 9.648H15.4624V7.969C15.4598 7.81434 15.4918 7.66079 15.5564 7.51752C15.6211 7.37425 15.717 7.24419 15.8386 7.1351C15.9601 7.026 16.1048 6.94011 16.2639 6.88254C16.4231 6.82497 16.5934 6.79689 16.7648 6.8H18.5384V4.375H16.7648C16.2412 4.375 15.7226 4.46817 15.2389 4.64917C14.7552 4.83017 14.3158 5.09546 13.9459 5.42984C13.5759 5.76422 13.2827 6.16114 13.083 6.59787C12.8834 7.0346 12.7811 7.50257 12.7821 7.975V9.648H10.1839V12.07H12.7832V18.437H3.42882C3.19931 18.4367 2.97928 18.3544 2.81699 18.208C2.6547 18.0616 2.5634 17.8631 2.56311 17.656V2.344C2.5634 2.13695 2.6547 1.93845 2.81699 1.79204C2.97928 1.64563 3.19931 1.56326 3.42882 1.563H20.4017C20.6313 1.56326 20.8513 1.64563 21.0136 1.79204C21.1759 1.93845 21.2672 2.13695 21.2675 2.344V17.656Z" fill="white"/>
</g>
<defs>
<clipPath id="clip0_83_534">
<rect width="22.1694" height="20" fill="white" transform="translate(0.830566)"/>
</clipPath>
</defs>
</svg>
