<svg width="31" height="30" viewBox="0 0 31 30" fill="none" xmlns="http://www.w3.org/2000/svg">
<g clip-path="url(#clip0_131_674)">
<path d="M29.5545 15C29.5545 6.97266 23.048 0.46875 15.0175 0.46875C6.98696 0.46875 0.480469 6.97266 0.480469 15C0.480469 22.2527 5.79644 28.2645 12.7461 29.3555V19.2006H9.0532V15H12.7461V11.7984C12.7461 8.15684 14.9149 6.14531 18.2367 6.14531C19.8276 6.14531 21.4911 6.42891 21.4911 6.42891V10.0031H19.6576C17.8522 10.0031 17.2889 11.1234 17.2889 12.2725V15H21.3206L20.6758 19.2006H17.2889V29.3555C24.2385 28.2645 29.5545 22.2527 29.5545 15Z" fill="#7D7D7D"/>
</g>
<defs>
<clipPath id="clip0_131_674">
<rect width="30.0119" height="30" fill="white" transform="translate(0.0117188)"/>
</clipPath>
</defs>
</svg>
