<svg width="25" height="25" viewBox="0 0 25 25" fill="none" xmlns="http://www.w3.org/2000/svg">
<path d="M13.5413 22.9167H9.37467C9.09841 22.9167 8.83346 22.8069 8.63811 22.6116C8.44275 22.4162 8.33301 22.1513 8.33301 21.875V15.4167H6.24967C5.97341 15.4167 5.70846 15.3069 5.51311 15.1116C5.31775 14.9162 5.20801 14.6513 5.20801 14.375V10.625C5.20801 10.3487 5.31775 10.0838 5.51311 9.88843C5.70846 9.69308 5.97341 9.58333 6.24967 9.58333H8.33301V7.8125C8.40602 6.22537 9.10449 4.73171 10.2757 3.65811C11.4469 2.58451 12.9955 2.01832 14.583 2.08333H17.708C17.9843 2.08333 18.2492 2.19308 18.4446 2.38843C18.6399 2.58378 18.7497 2.84873 18.7497 3.125V6.875C18.7497 7.15127 18.6399 7.41622 18.4446 7.61157C18.2492 7.80692 17.9843 7.91666 17.708 7.91666H14.583V9.58333H17.708C17.8688 9.58211 18.0278 9.61816 18.1724 9.68864C18.3169 9.75912 18.4432 9.86213 18.5413 9.98958C18.6384 10.119 18.7039 10.2691 18.7329 10.4282C18.7618 10.5873 18.7533 10.751 18.708 10.9062L17.6663 14.6562C17.6033 14.8816 17.4663 15.0791 17.2773 15.217C17.0884 15.355 16.8585 15.4253 16.6247 15.4167H14.583V21.875C14.583 22.1513 14.4733 22.4162 14.2779 22.6116C14.0826 22.8069 13.8176 22.9167 13.5413 22.9167ZM10.4163 20.8333H12.4997V14.375C12.4997 14.0987 12.6094 13.8338 12.8048 13.6384C13.0001 13.4431 13.2651 13.3333 13.5413 13.3333H15.8747L16.333 11.6667H13.5413C13.2651 11.6667 13.0001 11.5569 12.8048 11.3616C12.6094 11.1662 12.4997 10.9013 12.4997 10.625V7.8125C12.5264 7.27822 12.7577 6.7747 13.1455 6.40625C13.5333 6.0378 14.0481 5.83266 14.583 5.83333H16.6663V4.16666H14.583C13.5484 4.10363 12.5307 4.45107 11.7507 5.13361C10.9707 5.81614 10.4912 6.77871 10.4163 7.8125V10.625C10.4163 10.9013 10.3066 11.1662 10.1112 11.3616C9.91589 11.5569 9.65094 11.6667 9.37467 11.6667H7.29134V13.3333H9.37467C9.65094 13.3333 9.91589 13.4431 10.1112 13.6384C10.3066 13.8338 10.4163 14.0987 10.4163 14.375V20.8333Z" fill="#01815E"/>
</svg>
