<svg width="1920" height="751" viewBox="0 0 1920 751" fill="none" xmlns="http://www.w3.org/2000/svg">
<g clip-path="url(#clip0_129_662)">
<rect width="1920" height="751" fill="#01815E"/>
<path d="M1758.38 -61.4384C1931.47 -217.794 2005.42 -261.628 2020.75 -264C2054.9 -246.664 2124.06 -205.093 2127.56 -177.501C2131.94 -143.011 2161.52 -61.4384 2196.03 72.6902C2230.54 206.819 2223.42 175.066 2227.8 282.369C2232.18 389.672 2164.26 730.742 2052.52 753.188C1940.78 775.634 1840.55 783.298 1614.88 753.188C1389.21 723.077 943.342 675.995 879.256 628.366C815.17 580.737 881.447 509.566 983.875 302.625C1086.3 95.6837 1125.19 175.066 1371.13 175.066C1617.07 175.066 1542.03 134.006 1758.38 -61.4384Z" fill="url(#paint0_linear_129_662)" fill-opacity="0.46"/>
<path d="M169.616 701.438C-3.47058 857.794 -77.416 901.628 -92.7528 904C-126.896 886.664 -196.057 845.093 -199.563 817.501C-203.945 783.01 -233.523 701.438 -268.031 567.31C-302.539 433.181 -295.418 464.934 -299.8 357.631C-304.182 250.328 -236.262 -90.7416 -124.522 -113.188C-12.7825 -135.634 87.4546 -143.298 313.125 -113.188C538.795 -83.0771 984.658 -35.9951 1048.74 11.6342C1112.83 59.2636 1046.55 130.434 944.125 337.375C841.697 544.316 802.807 464.934 556.871 464.934C310.934 464.934 385.975 505.994 169.616 701.438Z" fill="url(#paint1_linear_129_662)" fill-opacity="0.46"/>
</g>
<defs>
<linearGradient id="paint0_linear_129_662" x1="1959.89" y1="-107.425" x2="1181.39" y2="660.516" gradientUnits="userSpaceOnUse">
<stop offset="0.00853929" stop-color="#2AF598"/>
<stop offset="1" stop-color="#01815E"/>
</linearGradient>
<linearGradient id="paint1_linear_129_662" x1="-31.8938" y1="747.425" x2="746.605" y2="-20.5162" gradientUnits="userSpaceOnUse">
<stop offset="0.00853929" stop-color="#2AF598"/>
<stop offset="1" stop-color="#01815E"/>
</linearGradient>
<clipPath id="clip0_129_662">
<rect width="1920" height="751" fill="white"/>
</clipPath>
</defs>
</svg>
