<svg width="23" height="20" viewBox="0 0 23 20" fill="none" xmlns="http://www.w3.org/2000/svg">
<g clip-path="url(#clip0_83_537)">
<path d="M22.6068 5.88C22.5889 5.0508 22.4146 4.23042 22.0914 3.454C21.8057 2.78918 21.3694 2.18546 20.8104 1.68145C20.2513 1.17744 19.5818 0.784243 18.8447 0.527C17.9835 0.236089 17.0738 0.0791928 16.1544 0.063C14.9672 0.012 14.5904 0 11.5797 0C8.56913 0 8.19669 0.012 7.01062 0.059C6.09 0.0748634 5.17911 0.232113 4.31704 0.524C3.57688 0.775272 2.90679 1.16987 2.35393 1.68C1.79099 2.17964 1.35493 2.78354 1.07586 3.45C0.75308 4.22652 0.578789 5.04684 0.560424 5.876C0.503892 6.947 0.491699 7.287 0.491699 10C0.491699 12.713 0.505001 13.055 0.557099 14.122C0.574429 14.9518 0.748361 15.7729 1.07143 16.55C1.3569 17.2148 1.79301 17.8184 2.35188 18.3225C2.91075 18.8265 3.58008 19.2197 4.31704 19.477C5.17816 19.7682 6.08784 19.9254 7.0073 19.942C8.19004 19.989 8.56692 20.001 11.5775 20.001C14.5881 20.001 14.965 19.989 16.1478 19.942C17.0673 19.9259 17.977 19.7686 18.838 19.477C19.5749 19.2201 20.2442 18.8271 20.8029 18.3232C21.3616 17.8193 21.7975 17.2157 22.0825 16.551C22.4052 15.7745 22.5795 14.9541 22.598 14.125C22.6501 13.058 22.6634 12.718 22.6634 10.003C22.6634 7.288 22.6634 6.948 22.6068 5.881V5.88ZM20.6116 14.046C20.6044 14.6799 20.4754 15.3079 20.2303 15.902C20.0455 16.3337 19.7627 16.7257 19.3999 17.0529C19.0372 17.3802 18.6027 17.6353 18.1242 17.802C17.4655 18.0228 16.7695 18.1391 16.0668 18.146C14.8974 18.193 14.546 18.205 11.5875 18.205C8.62899 18.205 8.27428 18.193 7.10817 18.146C6.40463 18.1391 5.70775 18.022 5.04863 17.8C4.56735 17.6408 4.13203 17.3858 3.77499 17.054C3.40808 16.7312 3.12559 16.3387 2.94807 15.905C2.70336 15.3108 2.57435 14.6829 2.56676 14.049C2.51466 12.994 2.50136 12.678 2.50136 10.009C2.50136 7.34 2.51466 7.02 2.56676 5.969C2.57386 5.33509 2.70288 4.7071 2.94807 4.113C3.12451 3.67785 3.40887 3.28484 3.77943 2.964C4.13711 2.63289 4.57225 2.37802 5.05306 2.218C5.71185 1.99771 6.40784 1.88167 7.11038 1.875C8.27982 1.828 8.63121 1.816 11.5897 1.816C14.5482 1.816 14.9029 1.828 16.0691 1.875C16.7717 1.88153 17.4678 1.99792 18.1264 2.219C18.6077 2.37813 19.043 2.63312 19.4 2.965C19.7669 3.28777 20.0494 3.6803 20.2269 4.114C20.4728 4.70804 20.6029 5.33596 20.6116 5.97C20.6637 7.025 20.677 7.341 20.677 10.01C20.677 12.679 20.6637 12.991 20.6116 14.046Z" fill="white"/>
<path d="M11.5809 4.86377C10.4545 4.86417 9.35362 5.16584 8.41732 5.73065C7.48102 6.29546 6.75138 7.09804 6.32065 8.03693C5.88993 8.97581 5.77746 10.0088 5.99746 11.0054C6.21747 12.0019 6.76007 12.9172 7.55667 13.6356C8.35326 14.354 9.36807 14.8431 10.4728 15.0412C11.5775 15.2393 12.7226 15.1374 13.7631 14.7485C14.8037 14.3595 15.693 13.701 16.3187 12.8561C16.9445 12.0112 17.2784 11.0179 17.2784 10.0018C17.2778 8.6389 16.6773 7.33203 15.6089 6.36853C14.5404 5.40503 13.0916 4.86377 11.5809 4.86377ZM11.5809 13.3338C10.8502 13.3336 10.136 13.1379 9.5286 12.7716C8.92119 12.4052 8.44781 11.8846 8.16835 11.2756C7.88889 10.6665 7.81589 9.99639 7.95857 9.34991C8.10125 8.70344 8.4532 8.10966 8.96994 7.64363C9.48667 7.1776 10.145 6.86027 10.8616 6.73174C11.5782 6.60322 12.321 6.66928 12.9961 6.92158C13.6711 7.17387 14.248 7.60107 14.654 8.14915C15.0599 8.69724 15.2765 9.3416 15.2765 10.0008C15.2762 10.8848 14.8867 11.7326 14.1937 12.3576C13.5007 12.9826 12.5608 13.3338 11.5809 13.3338Z" fill="white"/>
<path d="M18.8325 4.65997C18.8325 4.8973 18.7545 5.12931 18.6083 5.32664C18.4622 5.52398 18.2544 5.67779 18.0114 5.76862C17.7683 5.85944 17.5008 5.88321 17.2428 5.83691C16.9848 5.7906 16.7478 5.67631 16.5618 5.50849C16.3757 5.34067 16.249 5.12685 16.1977 4.89407C16.1464 4.6613 16.1727 4.42002 16.2734 4.20074C16.3741 3.98147 16.5446 3.79406 16.7633 3.6622C16.9821 3.53034 17.2392 3.45996 17.5023 3.45996C17.8551 3.45996 18.1934 3.58639 18.4429 3.81143C18.6923 4.03648 18.8325 4.34171 18.8325 4.65997Z" fill="white"/>
</g>
<defs>
<clipPath id="clip0_83_537">
<rect width="22.1694" height="20" fill="white" transform="translate(0.491699)"/>
</clipPath>
</defs>
</svg>
