<svg width="31" height="30" viewBox="0 0 31 30" fill="none" xmlns="http://www.w3.org/2000/svg">
<path d="M15.0125 8.26172C11.2845 8.26172 8.27744 11.2676 8.27744 14.9941C8.27744 18.7207 11.2845 21.7266 15.0125 21.7266C18.7406 21.7266 21.7476 18.7207 21.7476 14.9941C21.7476 11.2676 18.7406 8.26172 15.0125 8.26172ZM15.0125 19.3711C12.6034 19.3711 10.6338 17.4082 10.6338 14.9941C10.6338 12.5801 12.5975 10.6172 15.0125 10.6172C17.4276 10.6172 19.3912 12.5801 19.3912 14.9941C19.3912 17.4082 17.4217 19.3711 15.0125 19.3711ZM23.5941 7.98633C23.5941 8.85938 22.8907 9.55664 22.0231 9.55664C21.1497 9.55664 20.4522 8.85352 20.4522 7.98633C20.4522 7.11914 21.1556 6.41602 22.0231 6.41602C22.8907 6.41602 23.5941 7.11914 23.5941 7.98633ZM28.0548 9.58008C27.9552 7.47656 27.4745 5.61328 25.9329 4.07812C24.3971 2.54297 22.5331 2.0625 20.4287 1.95703C18.2599 1.83398 11.7593 1.83398 9.59046 1.95703C7.49198 2.05664 5.62795 2.53711 4.08633 4.07227C2.5447 5.60742 2.0699 7.4707 1.96439 9.57422C1.8413 11.7422 1.8413 18.2402 1.96439 20.4082C2.06404 22.5117 2.5447 24.375 4.08633 25.9102C5.62795 27.4453 7.48611 27.9258 9.59046 28.0312C11.7593 28.1543 18.2599 28.1543 20.4287 28.0312C22.5331 27.9316 24.3971 27.4512 25.9329 25.9102C27.4687 24.375 27.9493 22.5117 28.0548 20.4082C28.1779 18.2402 28.1779 11.748 28.0548 9.58008ZM25.2529 22.7344C24.7957 23.8828 23.9106 24.7676 22.7558 25.2305C21.0266 25.916 16.9235 25.7578 15.0125 25.7578C13.1016 25.7578 8.99257 25.9102 7.26923 25.2305C6.12034 24.7734 5.23522 23.8887 4.77215 22.7344C4.08633 21.0059 4.24459 16.9043 4.24459 14.9941C4.24459 13.084 4.09219 8.97656 4.77215 7.25391C5.22936 6.10547 6.11448 5.2207 7.26923 4.75781C8.99843 4.07227 13.1016 4.23047 15.0125 4.23047C16.9235 4.23047 21.0325 4.07812 22.7558 4.75781C23.9047 5.21484 24.7899 6.09961 25.2529 7.25391C25.9387 8.98242 25.7805 13.084 25.7805 14.9941C25.7805 16.9043 25.9387 21.0117 25.2529 22.7344Z" fill="#7D7D7D"/>
</svg>
