<svg width="23" height="20" viewBox="0 0 23 20" fill="none" xmlns="http://www.w3.org/2000/svg">
<path d="M7.08187 16.523H4.0502V7.7H7.08187V16.523ZM7.38338 4.883C7.38338 4.56655 7.27936 4.25721 7.08448 3.99409C6.8896 3.73097 6.61261 3.52589 6.28853 3.40479C5.96446 3.28369 5.60786 3.25201 5.26382 3.31374C4.91978 3.37548 4.60377 3.52787 4.35573 3.75163C4.10769 3.97539 3.93878 4.26049 3.87035 4.57086C3.80191 4.88123 3.83704 5.20293 3.97127 5.49529C4.10551 5.78766 4.33283 6.03754 4.62449 6.21335C4.91615 6.38916 5.25905 6.483 5.60982 6.483C6.0802 6.483 6.53131 6.31443 6.86392 6.01437C7.19652 5.71431 7.38338 5.30735 7.38338 4.883ZM18.4249 11.667C18.4249 9.297 17.8706 7.539 14.8013 7.539C14.2314 7.50981 13.6634 7.62106 13.1583 7.86081C12.6531 8.10056 12.2298 8.45979 11.9337 8.9V7.7H8.98623V16.528H11.9303V12.14C11.9303 10.992 12.254 9.88 13.8314 9.88C15.3832 9.88 15.4375 11.193 15.4375 12.213V16.523H18.4304L18.4249 11.667ZM22.3223 17.656V2.344C22.3217 1.72267 22.0479 1.12692 21.561 0.68748C21.0741 0.248038 20.4138 0.000794317 19.7251 0L2.75108 0C2.06215 0.000529617 1.40162 0.247656 0.914477 0.687127C0.427337 1.1266 0.153404 1.7225 0.152817 2.344L0.152817 17.656C0.153404 18.2775 0.427337 18.8734 0.914477 19.3129C1.40162 19.7523 2.06215 19.9995 2.75108 20H19.7251C20.4138 19.9992 21.0741 19.752 21.561 19.3125C22.0479 18.8731 22.3217 18.2773 22.3223 17.656ZM19.7251 1.563C19.9546 1.56326 20.1746 1.64563 20.3369 1.79204C20.4992 1.93845 20.5905 2.13695 20.5908 2.344V17.656C20.5905 17.8631 20.4992 18.0616 20.3369 18.208C20.1746 18.3544 19.9546 18.4367 19.7251 18.437H2.75108C2.52156 18.4367 2.30153 18.3544 2.13924 18.208C1.97696 18.0616 1.88565 17.8631 1.88536 17.656V2.344C1.88565 2.13695 1.97696 1.93845 2.13924 1.79204C2.30153 1.64563 2.52156 1.56326 2.75108 1.563H19.7251Z" fill="white"/>
</svg>
