<svg width="15" height="20" viewBox="0 0 15 20" fill="none" xmlns="http://www.w3.org/2000/svg">
<path d="M0.786009 10.7348C0.19741 11.7348 0.865819 12.2188 2.39108 13.0348C3.71052 13.6415 5.15315 13.9995 6.63098 14.0868L2.09511 17.8738C0.774924 18.9738 2.89986 20.7318 4.21895 19.6578L7.79044 16.6698C9.15719 17.8108 10.4685 18.9038 11.3619 19.6618C12.6821 20.7398 14.806 18.9938 13.5002 17.8778C13.4026 17.7968 8.66059 13.8518 8.9499 14.0938C10.4181 14.0027 11.8508 13.6453 13.1621 13.0428C14.6874 12.2188 15.3569 11.7428 14.776 10.7348C14.4258 10.1648 13.4802 9.68775 12.2265 10.5118C10.8995 11.2752 9.35193 11.668 7.77825 11.6408C6.2094 11.6658 4.66717 11.2731 3.34436 10.5118C2.08625 9.68375 1.13739 10.1648 0.794877 10.7348H0.786009Z" fill="white"/>
<path d="M7.78164 10.118C9.33378 10.1745 10.8477 9.6749 11.9931 8.72829C13.1386 7.78167 13.8226 6.46481 13.896 5.06498C13.8257 3.66312 13.1431 2.34337 11.9973 1.39424C10.8516 0.445119 9.3359 -0.0561637 7.78164 -1.70958e-05C6.2267 -0.0569822 4.71003 0.443905 3.56337 1.39309C2.41671 2.34227 1.73339 3.66249 1.66287 5.06498C1.73623 6.46553 2.42086 7.78301 3.56727 8.72974C4.71368 9.67647 6.22874 10.1755 7.78164 10.118ZM7.78164 2.56498C8.5469 2.53871 9.29253 2.78703 9.85532 3.25557C10.4181 3.72411 10.7522 4.37472 10.7845 5.06498C10.7491 5.75321 10.4136 6.40092 9.85111 6.86696C9.28863 7.333 8.54477 7.57958 7.78164 7.55298C7.01794 7.58039 6.27323 7.33417 5.71003 6.86805C5.14682 6.40193 4.81086 5.75375 4.77546 5.06498C4.80746 4.37463 5.14147 3.72387 5.70432 3.25527C6.26718 2.78667 7.01297 2.53845 7.77831 2.56498H7.78164Z" fill="white"/>
</svg>
