<svg width="25" height="25" viewBox="0 0 25 25" fill="none" xmlns="http://www.w3.org/2000/svg">
<path d="M18.1247 22.9167C13.8719 22.9112 9.79479 21.2193 6.78759 18.2121C3.78039 15.2049 2.08852 11.1278 2.08301 6.87501C2.08301 5.60418 2.58784 4.3854 3.48645 3.48679C4.38507 2.58818 5.60385 2.08334 6.87467 2.08334C7.14378 2.08129 7.41243 2.10571 7.67676 2.15626C7.93229 2.19407 8.18349 2.25687 8.42676 2.34376C8.59785 2.40379 8.75031 2.50744 8.86906 2.64446C8.98781 2.78148 9.06874 2.94712 9.10384 3.12501L10.5309 9.37501C10.5694 9.54466 10.5648 9.72124 10.5175 9.88864C10.4701 10.056 10.3817 10.2089 10.2601 10.3333C10.1247 10.4792 10.1143 10.4896 8.83301 11.1563C9.85904 13.4071 11.6593 15.2148 13.9059 16.25C14.583 14.9583 14.5934 14.9479 14.7393 14.8125C14.8637 14.6909 15.0166 14.6025 15.184 14.5551C15.3514 14.5078 15.5279 14.5032 15.6976 14.5417L21.9476 15.9688C22.1198 16.0087 22.279 16.0918 22.4102 16.2103C22.5414 16.3287 22.6403 16.4786 22.6976 16.6458C22.7855 16.8931 22.8517 17.1475 22.8955 17.4063C22.9374 17.6681 22.9583 17.9328 22.958 18.1979C22.9388 19.4633 22.4198 20.6697 21.5142 21.5538C20.6087 22.4379 19.3902 22.9278 18.1247 22.9167ZM6.87467 4.16667C6.15722 4.16942 5.46994 4.45564 4.96263 4.96296C4.45531 5.47027 4.16909 6.15756 4.16634 6.87501C4.1691 10.5761 5.64059 14.1249 8.25769 16.742C10.8748 19.3591 14.4235 20.8306 18.1247 20.8333C18.8421 20.8306 19.5294 20.5444 20.0367 20.0371C20.544 19.5297 20.8303 18.8425 20.833 18.125V17.7813L15.9997 16.6667L15.6976 17.2396C15.2288 18.1458 14.8851 18.8021 14.0101 18.4479C12.2839 17.8301 10.7171 16.8355 9.42336 15.5363C8.12965 14.2372 7.14157 12.6662 6.53092 10.9375C6.15592 10.125 6.86426 9.75001 7.76009 9.28126L8.33301 9.00001L7.21842 4.16667H6.87467Z" fill="#01815E"/>
</svg>
