<svg width="28" height="20" viewBox="0 0 28 20" fill="none" xmlns="http://www.w3.org/2000/svg">
<path d="M27.4038 2.67097C25.73 2.74197 25.7666 2.73597 25.5781 2.75097L26.5691 0.150972C26.5691 0.150972 23.4754 1.19597 22.6895 1.38297C21.6991 0.5926 20.4517 0.112835 19.1339 0.0154904C17.8161 -0.0818541 16.4987 0.208458 15.3791 0.842972C14.4879 1.32749 13.7788 2.04258 13.3439 2.89536C12.909 3.74814 12.7685 4.69919 12.9405 5.62497C9.4866 5.196 6.35243 3.57359 4.19905 1.09997L3.46081 0.291972L2.91211 1.21697C2.22384 2.36707 1.99638 3.69615 2.26809 4.97997C2.37979 5.49168 2.57203 5.98635 2.83896 6.44897L2.20934 6.22497L2.13064 7.19097C2.08696 8.27711 2.4198 9.34851 3.08282 10.256C3.29865 10.5574 3.54706 10.8388 3.82439 11.096L3.4985 11.05L3.9042 12.157C4.14062 12.847 4.52931 13.4867 5.04688 14.0376C5.56445 14.5886 6.20021 15.0394 6.91592 15.363C5.51148 15.911 4.37641 16.263 2.51085 16.823L0.800476 17.339L2.37672 18.131C3.88013 18.8943 5.50789 19.4384 7.19968 19.743C11.8641 20.415 17.115 19.868 20.651 16.943C23.6283 14.48 24.606 10.976 24.4032 7.32897C24.3647 6.80135 24.5283 6.27783 24.8665 5.84597C25.5316 5.03597 27.4005 2.67697 27.4049 2.67097H27.4038ZM23.6195 4.98797C23.0614 5.68845 22.7874 6.54081 22.8435 7.40197C23.0486 11.08 21.9568 13.932 19.6046 15.88C16.8545 18.155 12.4195 19.047 7.4369 18.33C6.54052 18.1834 5.66575 17.9445 4.82977 17.618C6.44539 17.1133 8.02436 16.5178 9.5574 15.835L12.2798 14.651L9.27363 14.474C8.59552 14.445 7.93504 14.2695 7.34783 13.9622C6.76062 13.6548 6.26388 13.2247 5.89945 12.708C6.28671 12.6876 6.67032 12.6289 7.04339 12.533L9.90768 11.8L7.01679 11.15C5.9326 10.9176 4.99028 10.3155 4.38749 9.46997C4.13232 9.11396 3.9401 8.7243 3.81774 8.31497C4.20264 8.40179 4.59493 8.45932 4.9905 8.48697L7.66635 8.72997L5.54584 7.20997C4.82394 6.72022 4.27833 6.04913 3.97743 5.28082C3.67652 4.5125 3.63369 3.68115 3.85432 2.89097C5.26404 4.23276 6.95726 5.30635 8.83417 6.04846C10.7111 6.79058 12.7337 7.18619 14.7827 7.21197C14.7613 6.80508 14.708 6.40006 14.6231 5.99997C14.3431 5.28097 14.3467 4.49681 14.6332 3.77991C14.9198 3.063 15.4718 2.45727 16.196 2.06497C17.0383 1.58876 18.0291 1.37205 19.0196 1.44743C20.01 1.52281 20.9466 1.8862 21.6885 2.48297C21.8558 2.62793 22.061 2.73244 22.285 2.7868C22.509 2.84117 22.7446 2.84363 22.9699 2.79397C23.3263 2.71247 23.6778 2.61434 24.023 2.49997L23.3512 4.26297H24.2092L23.6195 4.98797Z" fill="white"/>
</svg>
