<svg width="31" height="30" viewBox="0 0 31 30" fill="none" xmlns="http://www.w3.org/2000/svg">
<g clip-path="url(#clip0_131_672)">
<path d="M26.9386 8.88961C26.9577 9.1561 26.9577 9.42264 26.9577 9.68912C26.9577 17.8172 20.7687 27.1828 9.45709 27.1828C5.97219 27.1828 2.73489 26.1738 0.0117188 24.4226C0.506857 24.4797 0.982885 24.4988 1.49707 24.4988C4.37253 24.4988 7.01956 23.528 9.13334 21.8719C6.42922 21.8147 4.16309 20.0445 3.38231 17.6079C3.76321 17.665 4.14404 17.703 4.54399 17.703C5.09622 17.703 5.64851 17.6269 6.16263 17.4937C3.34427 16.9226 1.23042 14.448 1.23042 11.4594V11.3833C2.04925 11.8402 3.00148 12.1257 4.01069 12.1637C2.35394 11.0596 1.26853 9.17514 1.26853 7.04315C1.26853 5.90104 1.57316 4.85408 2.1064 3.94037C5.13426 7.67133 9.68558 10.1078 14.7891 10.3744C14.6939 9.91752 14.6367 9.44168 14.6367 8.96578C14.6367 5.57742 17.3789 2.81731 20.7876 2.81731C22.5586 2.81731 24.1582 3.55969 25.2818 4.75893C26.6719 4.49244 28.0049 3.97846 29.1856 3.27416C28.7285 4.70186 27.7574 5.9011 26.4815 6.66246C27.7193 6.52928 28.919 6.18656 30.0235 5.71072C29.1858 6.92895 28.1383 8.01393 26.9386 8.88961Z" fill="#7D7D7D"/>
</g>
<defs>
<clipPath id="clip0_131_672">
<rect width="30.0119" height="30" fill="white" transform="translate(0.0117188)"/>
</clipPath>
</defs>
</svg>
