<svg width="36" height="20" viewBox="0 0 36 20" fill="none" xmlns="http://www.w3.org/2000/svg">
<path d="M18.1094 20.0002C23.2406 20.0002 21.4116 17.0692 21.8073 16.2272C21.8018 15.5982 21.7951 14.9922 21.8195 14.6272C22.8466 15.0544 23.7596 15.6762 24.4965 16.4502C26.9429 18.6772 27.568 20.0032 29.5433 20.0032H33.1802C33.5679 20.0311 33.9573 19.9735 34.3149 19.8356C34.6725 19.6976 34.9876 19.4834 35.2331 19.2112C35.4463 18.935 35.5816 18.6161 35.6274 18.282C35.6731 17.948 35.628 17.6089 35.4958 17.2942C34.6844 14.9942 29.9535 11.0262 29.6575 10.6072C29.7018 10.5302 29.7683 10.4272 29.8094 10.3742C30.7438 9.2612 34.3086 4.4422 34.833 2.5142C34.8339 2.51058 34.8339 2.50683 34.833 2.5032C34.9543 2.21186 34.9954 1.8983 34.9527 1.58946C34.91 1.28063 34.7849 0.985759 34.588 0.730205C34.3565 0.478591 34.0614 0.280912 33.7274 0.153857C33.3934 0.0268018 33.0305 -0.0258987 32.6692 0.000205081H29.0323C28.4708 -0.0190858 27.9167 0.121476 27.4486 0.401988C26.9805 0.682499 26.6221 1.08875 26.4241 1.56321C25.6426 3.35621 23.4456 7.04421 21.7995 8.35021C21.7497 6.50121 21.7829 5.0892 21.8095 4.0392C21.8627 1.9922 22.0312 0.000205081 19.6801 0.000205081H13.9626C12.4873 0.000205081 11.0806 1.4532 12.6048 3.1792C13.9405 4.69121 13.0847 5.5342 13.3729 9.7282C11.3555 7.40469 9.81928 4.77185 8.83818 1.9562C8.72141 1.39551 8.38705 0.890672 7.89506 0.532225C7.40307 0.173779 6.78563 -0.0148351 6.15346 0.000205081H2.51546C2.21387 -0.037027 1.90689 -0.0139761 1.61628 0.0677247C1.32566 0.149426 1.05852 0.287778 0.833763 0.472981C0.609009 0.658183 0.432148 0.885706 0.315706 1.13943C0.199264 1.39316 0.146091 1.66688 0.159953 1.94121C0.159953 4.6692 6.85402 20.0002 18.1094 20.0002ZM6.15346 2.00021C6.47381 2.00021 6.50706 2.00021 6.74428 2.60921C8.19083 6.45321 11.4364 12.1412 13.8075 12.1412C15.5888 12.1412 15.5888 10.4942 15.5888 9.8742V4.9402C15.5742 3.86639 15.1538 2.82923 14.3972 2.00021L19.5815 2.00521C19.5815 2.02821 19.5516 7.4652 19.5959 8.7822C19.5959 10.6532 21.242 11.7252 23.8081 9.38221C25.7322 7.24541 27.303 4.86838 28.4714 2.3252C28.5823 2.0852 28.6787 2.00421 29.0257 2.00421H32.6781C32.6781 2.00421 32.6781 2.0122 32.6781 2.0162C32.3455 3.4162 29.0634 7.8772 27.9649 9.2632C27.9471 9.2842 27.9305 9.30721 27.915 9.3302C27.5774 9.69924 27.3984 10.1656 27.4106 10.6439C27.4228 11.1222 27.6255 11.5806 27.9815 11.9352C28.0668 12.0282 28.2908 12.2472 28.6155 12.5512C29.6265 13.4922 33.0938 16.7112 33.4008 17.9912C33.1968 18.0202 32.9752 17.9992 29.5389 18.0062C28.8073 18.0062 28.2353 17.0192 26.0527 15.0332C24.0941 13.3052 22.8204 12.6002 21.6643 12.6002C19.4119 12.6002 19.5759 14.2492 19.597 16.2442C19.6048 18.4072 19.5892 17.7232 19.6059 17.8592C19.1212 17.9815 18.6171 18.0288 18.115 17.9992C8.73177 18.0002 2.62519 4.57221 2.3902 2.00521C2.47112 1.99821 3.59067 2.00521 6.15346 2.00521V2.00021Z" fill="white"/>
</svg>
