<svg width="31" height="30" viewBox="0 0 31 30" fill="none" xmlns="http://www.w3.org/2000/svg">
<path d="M28.6385 8.12932C28.3112 6.89755 27.347 5.92745 26.1227 5.59823C23.9036 5 15.0052 5 15.0052 5C15.0052 5 6.10691 5 3.88774 5.59823C2.66346 5.9275 1.69922 6.89755 1.37195 8.12932C0.777344 10.362 0.777344 15.0202 0.777344 15.0202C0.777344 15.0202 0.777344 19.6784 1.37195 21.9111C1.69922 23.1429 2.66346 24.0726 3.88774 24.4018C6.10691 25 15.0052 25 15.0052 25C15.0052 25 23.9035 25 26.1227 24.4018C27.347 24.0726 28.3112 23.1429 28.6385 21.9111C29.2331 19.6784 29.2331 15.0202 29.2331 15.0202C29.2331 15.0202 29.2331 10.362 28.6385 8.12932ZM12.095 19.2495V10.7909L19.5322 15.0203L12.095 19.2495Z" fill="#7D7D7D"/>
</svg>
