<svg width="29" height="20" viewBox="0 0 29 20" fill="none" xmlns="http://www.w3.org/2000/svg">
<path d="M19.0708 8.81809L12.604 5.62609C12.4232 5.53661 12.2196 5.49118 12.0133 5.49429C11.8071 5.4974 11.6053 5.54892 11.4279 5.6438C11.2504 5.73868 11.1034 5.87363 11.0014 6.03536C10.8994 6.19708 10.8458 6.38 10.846 6.56609V12.8951C10.8454 13.0806 10.8984 13.2631 10.9996 13.4246C11.1009 13.5861 11.2469 13.7211 11.4234 13.8163C11.6 13.9115 11.8009 13.9637 12.0065 13.9677C12.2121 13.9717 12.4154 13.9274 12.5963 13.8391L19.0631 10.7021C19.2517 10.6109 19.4094 10.4754 19.5197 10.3099C19.6299 10.1445 19.6885 9.95521 19.6893 9.76217C19.6901 9.56914 19.633 9.3795 19.5242 9.21331C19.4153 9.04712 19.2587 8.91057 19.0708 8.81809ZM12.5619 12.0991V7.37009L17.3948 9.75609L12.5619 12.0991Z" fill="white"/>
<path d="M28.7788 4.72V4.708C28.6719 3.60118 28.2319 2.54173 27.5063 1.644C26.6983 0.858382 25.5879 0.381143 24.4026 0.31L24.2574 0.294H24.2075C20.3977 0.035 14.6436 0 14.5815 0H14.5716C14.5139 0 8.75984 0.035 4.91566 0.289H4.86467L4.73387 0.309C3.54438 0.384107 2.43526 0.877934 1.64567 1.684C0.948061 2.57366 0.514208 3.60947 0.385333 4.693V4.72C0.374249 4.809 0.171398 6.914 0.171398 9.028V11C0.171398 13.114 0.374249 15.219 0.383116 15.308V15.321C0.492054 16.4151 0.929719 17.4616 1.64899 18.348C2.49332 19.1429 3.64442 19.6142 4.86356 19.664C4.98106 19.676 5.08525 19.687 5.15065 19.698L5.21716 19.706C7.41748 19.898 14.3144 19.992 14.607 19.996H14.6248C14.6824 19.996 20.4365 19.961 24.2463 19.707H24.2962L24.458 19.69C25.0412 19.6593 25.6118 19.5249 26.1373 19.2946C26.6627 19.0643 27.1324 18.7426 27.5196 18.348C28.2139 17.4572 28.6443 16.4211 28.77 15.338V15.311C28.7866 15.223 28.9917 13.118 28.9917 11V9.028C28.9917 6.914 28.7877 4.809 28.7799 4.72H28.7788ZM27.3012 11C27.3012 12.956 27.115 14.971 27.0973 15.156C27.0086 15.9188 26.7252 16.6527 26.2693 17.3C26.0192 17.5574 25.7129 17.7655 25.3696 17.9112C25.0262 18.057 24.6533 18.1372 24.274 18.147L24.0944 18.166C20.4088 18.41 14.872 18.448 14.617 18.449C14.331 18.449 7.53498 18.349 5.40117 18.168C5.29032 18.152 5.17393 18.139 5.04978 18.126C4.23899 18.1131 3.46536 17.817 2.89159 17.3L2.87607 17.285C2.41086 16.651 2.13132 15.9209 2.06356 15.163C2.05026 15.023 1.85849 12.985 1.85849 11.001V9.028C1.85849 7.074 2.04472 5.061 2.06245 4.872C2.147 4.10839 2.43074 3.37368 2.89048 2.728C3.14679 2.46528 3.45904 2.25173 3.80865 2.10004C4.15827 1.94835 4.53812 1.86162 4.92563 1.845L5.06308 1.83C8.80196 1.585 14.3742 1.548 14.5782 1.547C14.7822 1.546 20.3533 1.585 24.059 1.83L24.2075 1.846C24.9951 1.87589 25.7381 2.18408 26.2759 2.704L26.2826 2.711C26.7499 3.35554 27.0294 4.09608 27.0951 4.864C27.1084 4.996 27.3001 7.039 27.3001 9.027L27.3012 11Z" fill="white"/>
</svg>
